<mxfile host="Electron" modified="2025-02-08T14:50:03.818Z" agent="Mozilla/5.0 (Windows NT 10.0; Win64; x64) AppleWebKit/537.36 (KHTML, like Gecko) draw.io/24.6.1 Chrome/124.0.6367.207 Electron/30.0.6 Safari/537.36" etag="7vzSy5TLBDMoga_TPRKs" version="24.6.1" type="device" pages="7">
  <diagram name="Type" id="Trd9Wxt2IUBviXF1dlTx">
    <mxGraphModel dx="2706" dy="2947" grid="1" gridSize="10" guides="1" tooltips="1" connect="1" arrows="1" fold="1" page="1" pageScale="1" pageWidth="827" pageHeight="1169" math="0" shadow="0">
      <root>
        <mxCell id="0" />
        <mxCell id="1" parent="0" />
        <mxCell id="_0gAvWaLxbeNMdYP4Cf7-7" style="edgeStyle=orthogonalEdgeStyle;rounded=0;orthogonalLoop=1;jettySize=auto;html=1;exitX=1;exitY=0.25;exitDx=0;exitDy=0;entryX=0;entryY=0.25;entryDx=0;entryDy=0;" parent="1" source="wwUiZ2nHYFbeM543Ft4L-1" target="_0gAvWaLxbeNMdYP4Cf7-5" edge="1">
          <mxGeometry relative="1" as="geometry" />
        </mxCell>
        <mxCell id="wwUiZ2nHYFbeM543Ft4L-1" value="Enum : t_eGMCR_SFMReference&amp;nbsp;&lt;div&gt;in ConfigPublic&lt;/div&gt;" style="swimlane;fontStyle=0;childLayout=stackLayout;horizontal=1;startSize=40;horizontalStack=0;resizeParent=1;resizeParentMax=0;resizeLast=0;collapsible=1;marginBottom=0;whiteSpace=wrap;html=1;fillColor=#f8cecc;gradientColor=#ea6b66;strokeColor=#b85450;fontColor=#000000;" parent="1" vertex="1">
          <mxGeometry x="-1600" y="-2310" width="260" height="160" as="geometry">
            <mxRectangle x="-1160" y="-1210" width="240" height="40" as="alternateBounds" />
          </mxGeometry>
        </mxCell>
        <mxCell id="wwUiZ2nHYFbeM543Ft4L-2" value="GMCR_FSM_REF_AXE_X" style="text;strokeColor=#b85450;fillColor=#f8cecc;align=left;verticalAlign=middle;spacingLeft=4;spacingRight=4;overflow=hidden;points=[[0,0.5],[1,0.5]];portConstraint=eastwest;rotatable=0;whiteSpace=wrap;html=1;gradientColor=#ea6b66;fontColor=#000000;" parent="wwUiZ2nHYFbeM543Ft4L-1" vertex="1">
          <mxGeometry y="40" width="260" height="30" as="geometry" />
        </mxCell>
        <mxCell id="wwUiZ2nHYFbeM543Ft4L-3" value="GMCR_FSM_REF_AXE_Y" style="text;strokeColor=#b85450;fillColor=#f8cecc;align=left;verticalAlign=middle;spacingLeft=4;spacingRight=4;overflow=hidden;points=[[0,0.5],[1,0.5]];portConstraint=eastwest;rotatable=0;whiteSpace=wrap;html=1;gradientColor=#ea6b66;fontColor=#000000;" parent="wwUiZ2nHYFbeM543Ft4L-1" vertex="1">
          <mxGeometry y="70" width="260" height="30" as="geometry" />
        </mxCell>
        <mxCell id="wwUiZ2nHYFbeM543Ft4L-4" value="GMCR_FSM_REF_AXE_Z" style="text;strokeColor=#b85450;fillColor=#f8cecc;align=left;verticalAlign=middle;spacingLeft=4;spacingRight=4;overflow=hidden;points=[[0,0.5],[1,0.5]];portConstraint=eastwest;rotatable=0;whiteSpace=wrap;html=1;gradientColor=#ea6b66;fontColor=#000000;" parent="wwUiZ2nHYFbeM543Ft4L-1" vertex="1">
          <mxGeometry y="100" width="260" height="30" as="geometry" />
        </mxCell>
        <mxCell id="wwUiZ2nHYFbeM543Ft4L-5" value="GMCR_FSM_REF_NB" style="text;strokeColor=#b85450;fillColor=#f8cecc;align=left;verticalAlign=middle;spacingLeft=4;spacingRight=4;overflow=hidden;points=[[0,0.5],[1,0.5]];portConstraint=eastwest;rotatable=0;whiteSpace=wrap;html=1;gradientColor=#ea6b66;fontColor=#000000;" parent="wwUiZ2nHYFbeM543Ft4L-1" vertex="1">
          <mxGeometry y="130" width="260" height="30" as="geometry" />
        </mxCell>
        <mxCell id="_0gAvWaLxbeNMdYP4Cf7-2" value="" style="group;fontSize=12;" parent="1" connectable="0" vertex="1">
          <mxGeometry x="-1190" y="-2275" width="500" height="90" as="geometry" />
        </mxCell>
        <mxCell id="_0gAvWaLxbeNMdYP4Cf7-3" value="" style="rounded=0;whiteSpace=wrap;html=1;fillColor=#fff2cc;gradientColor=#ffd966;strokeColor=#d6b656;fontColor=#000000;fontSize=12;" parent="_0gAvWaLxbeNMdYP4Cf7-2" vertex="1">
          <mxGeometry width="499.99999999999994" height="90" as="geometry" />
        </mxCell>
        <mxCell id="_0gAvWaLxbeNMdYP4Cf7-4" value="static const t_eGMCR_FSMReference&amp;nbsp;&lt;div&gt;in .c&lt;/div&gt;" style="rounded=0;whiteSpace=wrap;html=1;fillColor=#fff2cc;gradientColor=#ffd966;strokeColor=#d6b656;fontColor=#000000;fontSize=12;" parent="_0gAvWaLxbeNMdYP4Cf7-2" vertex="1">
          <mxGeometry width="499.99999999999994" height="40" as="geometry" />
        </mxCell>
        <mxCell id="_0gAvWaLxbeNMdYP4Cf7-5" value="&lt;div style=&quot;text-align: center; font-size: 12px;&quot;&gt;g_FSMReference_e&lt;/div&gt;" style="rounded=0;whiteSpace=wrap;html=1;fillColor=#fff2cc;gradientColor=#ffd966;strokeColor=#d6b656;fontColor=#000000;fontSize=12;" parent="_0gAvWaLxbeNMdYP4Cf7-2" vertex="1">
          <mxGeometry y="40" width="499.99999999999994" height="50" as="geometry" />
        </mxCell>
        <mxCell id="6aZ8jzSWq793JSgHsqvb-1" value="" style="group;fontSize=12;" parent="1" connectable="0" vertex="1">
          <mxGeometry x="-1130" y="-2120" width="400" height="90" as="geometry" />
        </mxCell>
        <mxCell id="6aZ8jzSWq793JSgHsqvb-2" value="" style="rounded=0;whiteSpace=wrap;html=1;fillColor=#fff2cc;gradientColor=#ffd966;strokeColor=#d6b656;fontColor=#000000;fontSize=12;" parent="6aZ8jzSWq793JSgHsqvb-1" vertex="1">
          <mxGeometry width="399.99999999999994" height="90" as="geometry" />
        </mxCell>
        <mxCell id="6aZ8jzSWq793JSgHsqvb-3" value="statict t_float32 *&lt;div&gt;in .c&lt;/div&gt;" style="rounded=0;whiteSpace=wrap;html=1;fillColor=#fff2cc;gradientColor=#ffd966;strokeColor=#d6b656;fontColor=#000000;fontSize=12;" parent="6aZ8jzSWq793JSgHsqvb-1" vertex="1">
          <mxGeometry width="399.99999999999994" height="40" as="geometry" />
        </mxCell>
        <mxCell id="6aZ8jzSWq793JSgHsqvb-4" value="&lt;div style=&quot;text-align: center; font-size: 12px;&quot;&gt;g_SnsValue_apf32&lt;/div&gt;" style="rounded=0;whiteSpace=wrap;html=1;fillColor=#fff2cc;gradientColor=#ffd966;strokeColor=#d6b656;fontColor=#000000;fontSize=12;" parent="6aZ8jzSWq793JSgHsqvb-1" vertex="1">
          <mxGeometry y="40" width="399.99999999999994" height="50" as="geometry" />
        </mxCell>
        <mxCell id="6aZ8jzSWq793JSgHsqvb-5" value="" style="group;fontSize=12;" parent="1" connectable="0" vertex="1">
          <mxGeometry x="-1130" y="-1960" width="400" height="90" as="geometry" />
        </mxCell>
        <mxCell id="6aZ8jzSWq793JSgHsqvb-6" value="" style="rounded=0;whiteSpace=wrap;html=1;fillColor=#fff2cc;gradientColor=#ffd966;strokeColor=#d6b656;fontColor=#000000;fontSize=12;" parent="6aZ8jzSWq793JSgHsqvb-5" vertex="1">
          <mxGeometry width="399.99999999999994" height="90" as="geometry" />
        </mxCell>
        <mxCell id="6aZ8jzSWq793JSgHsqvb-7" value="statict t_sAPPLGC_SrvFunc&amp;nbsp;*&lt;div&gt;in .c&lt;/div&gt;" style="rounded=0;whiteSpace=wrap;html=1;fillColor=#fff2cc;gradientColor=#ffd966;strokeColor=#d6b656;fontColor=#000000;fontSize=12;" parent="6aZ8jzSWq793JSgHsqvb-5" vertex="1">
          <mxGeometry width="399.99999999999994" height="40" as="geometry" />
        </mxCell>
        <mxCell id="6aZ8jzSWq793JSgHsqvb-8" value="&lt;div style=&quot;text-align: center; font-size: 12px;&quot;&gt;g_SrvFunc_pas&lt;/div&gt;" style="rounded=0;whiteSpace=wrap;html=1;fillColor=#fff2cc;gradientColor=#ffd966;strokeColor=#d6b656;fontColor=#000000;fontSize=12;" parent="6aZ8jzSWq793JSgHsqvb-5" vertex="1">
          <mxGeometry y="40" width="399.99999999999994" height="50" as="geometry" />
        </mxCell>
      </root>
    </mxGraphModel>
  </diagram>
  <diagram id="AGFmhzJ9aS3y1UtGtYgM" name="sAPI">
    <mxGraphModel dx="2873" dy="3052" grid="1" gridSize="10" guides="1" tooltips="1" connect="1" arrows="1" fold="1" page="1" pageScale="1" pageWidth="827" pageHeight="1169" math="0" shadow="0">
      <root>
        <mxCell id="0" />
        <mxCell id="1" parent="0" />
        <mxCell id="mkxX5JwgxEcByr4B7KyK-1" value="" style="group;fontSize=12;" vertex="1" connectable="0" parent="1">
          <mxGeometry x="-1600" y="-2120" width="750" height="180" as="geometry" />
        </mxCell>
        <mxCell id="mkxX5JwgxEcByr4B7KyK-2" value="&lt;div style=&quot;font-size: 12px;&quot;&gt;&lt;div style=&quot;font-size: 12px;&quot;&gt;&lt;br&gt;&lt;/div&gt;&lt;/div&gt;" style="rounded=0;whiteSpace=wrap;html=1;fillColor=#d5e8d4;gradientColor=#97d077;strokeColor=#82b366;fontColor=#000000;align=left;fontSize=12;" vertex="1" parent="mkxX5JwgxEcByr4B7KyK-1">
          <mxGeometry width="750" height="180" as="geometry" />
        </mxCell>
        <mxCell id="mkxX5JwgxEcByr4B7KyK-3" value="s_GMCR_ReferenceAxeY&lt;span style=&quot;font-size: 12px; text-align: left;&quot;&gt;(&lt;/span&gt;&lt;span style=&quot;font-size: 12px; background-color: initial;&quot;&gt;void&lt;/span&gt;&lt;span style=&quot;background-color: initial; font-size: 12px;&quot;&gt;)&lt;/span&gt;" style="rounded=0;whiteSpace=wrap;html=1;fillColor=#d5e8d4;gradientColor=#97d077;strokeColor=#82b366;fontColor=#000000;fontSize=12;" vertex="1" parent="mkxX5JwgxEcByr4B7KyK-1">
          <mxGeometry width="750" height="45" as="geometry" />
        </mxCell>
        <mxCell id="mkxX5JwgxEcByr4B7KyK-4" value="" style="group;fontSize=12;" vertex="1" connectable="0" parent="1">
          <mxGeometry x="-1600" y="-2330" width="750" height="180" as="geometry" />
        </mxCell>
        <mxCell id="mkxX5JwgxEcByr4B7KyK-5" value="&lt;div style=&quot;font-size: 12px;&quot;&gt;&lt;div style=&quot;font-size: 12px;&quot;&gt;&lt;br&gt;&lt;/div&gt;&lt;/div&gt;" style="rounded=0;whiteSpace=wrap;html=1;fillColor=#d5e8d4;gradientColor=#97d077;strokeColor=#82b366;fontColor=#000000;align=left;fontSize=12;" vertex="1" parent="mkxX5JwgxEcByr4B7KyK-4">
          <mxGeometry width="750" height="180" as="geometry" />
        </mxCell>
        <mxCell id="mkxX5JwgxEcByr4B7KyK-6" value="s_GMCR_ReferenceAxeX&lt;span style=&quot;font-size: 12px; text-align: left;&quot;&gt;(&lt;/span&gt;&lt;span style=&quot;font-size: 12px; background-color: initial;&quot;&gt;void&lt;/span&gt;&lt;span style=&quot;background-color: initial; font-size: 12px;&quot;&gt;)&lt;/span&gt;" style="rounded=0;whiteSpace=wrap;html=1;fillColor=#d5e8d4;gradientColor=#97d077;strokeColor=#82b366;fontColor=#000000;fontSize=12;" vertex="1" parent="mkxX5JwgxEcByr4B7KyK-4">
          <mxGeometry width="750" height="45" as="geometry" />
        </mxCell>
        <mxCell id="mkxX5JwgxEcByr4B7KyK-7" value="" style="group;fontSize=12;" vertex="1" connectable="0" parent="1">
          <mxGeometry x="-1600" y="-1880" width="750" height="180" as="geometry" />
        </mxCell>
        <mxCell id="mkxX5JwgxEcByr4B7KyK-8" value="&lt;div style=&quot;font-size: 12px;&quot;&gt;&lt;div style=&quot;font-size: 12px;&quot;&gt;&lt;br&gt;&lt;/div&gt;&lt;/div&gt;" style="rounded=0;whiteSpace=wrap;html=1;fillColor=#d5e8d4;gradientColor=#97d077;strokeColor=#82b366;fontColor=#000000;align=left;fontSize=12;" vertex="1" parent="mkxX5JwgxEcByr4B7KyK-7">
          <mxGeometry width="750" height="180" as="geometry" />
        </mxCell>
        <mxCell id="mkxX5JwgxEcByr4B7KyK-9" value="s_GMCR_ReferenceAxeZ&lt;span style=&quot;font-size: 12px; text-align: left;&quot;&gt;(&lt;/span&gt;&lt;span style=&quot;font-size: 12px; background-color: initial;&quot;&gt;void&lt;/span&gt;&lt;span style=&quot;background-color: initial; font-size: 12px;&quot;&gt;)&lt;/span&gt;" style="rounded=0;whiteSpace=wrap;html=1;fillColor=#d5e8d4;gradientColor=#97d077;strokeColor=#82b366;fontColor=#000000;fontSize=12;" vertex="1" parent="mkxX5JwgxEcByr4B7KyK-7">
          <mxGeometry width="750" height="45" as="geometry" />
        </mxCell>
      </root>
    </mxGraphModel>
  </diagram>
  <diagram id="4Iz8Jlo9udocFIfXJ_2n" name="API">
    <mxGraphModel dx="2043" dy="2563" grid="1" gridSize="10" guides="1" tooltips="1" connect="1" arrows="1" fold="1" page="1" pageScale="1" pageWidth="827" pageHeight="1169" math="0" shadow="0">
      <root>
        <mxCell id="0" />
        <mxCell id="1" parent="0" />
        <mxCell id="98nrfrSy0b_OWZVlQNXL-1" value="" style="group;fontSize=12;" parent="1" vertex="1" connectable="0">
          <mxGeometry x="-1600" y="-2320" width="750" height="180" as="geometry" />
        </mxCell>
        <mxCell id="98nrfrSy0b_OWZVlQNXL-2" value="&lt;div style=&quot;font-size: 12px;&quot;&gt;&lt;div style=&quot;font-size: 12px;&quot;&gt;&lt;br&gt;&lt;/div&gt;&lt;/div&gt;" style="rounded=0;whiteSpace=wrap;html=1;fillColor=#d5e8d4;gradientColor=#97d077;strokeColor=#82b366;fontColor=#000000;align=left;fontSize=12;" parent="98nrfrSy0b_OWZVlQNXL-1" vertex="1">
          <mxGeometry width="750" height="180" as="geometry" />
        </mxCell>
        <mxCell id="98nrfrSy0b_OWZVlQNXL-3" value="GMCR_EnterMode(void)" style="rounded=0;whiteSpace=wrap;html=1;fillColor=#d5e8d4;gradientColor=#97d077;strokeColor=#82b366;fontColor=#000000;fontSize=12;" parent="98nrfrSy0b_OWZVlQNXL-1" vertex="1">
          <mxGeometry width="750" height="45" as="geometry" />
        </mxCell>
        <mxCell id="98nrfrSy0b_OWZVlQNXL-4" value="" style="group;fontSize=12;" parent="1" vertex="1" connectable="0">
          <mxGeometry x="-1600" y="-2080" width="750" height="180" as="geometry" />
        </mxCell>
        <mxCell id="98nrfrSy0b_OWZVlQNXL-5" value="&lt;div style=&quot;font-size: 12px;&quot;&gt;&lt;div style=&quot;font-size: 12px;&quot;&gt;&lt;br&gt;&lt;/div&gt;&lt;/div&gt;" style="rounded=0;whiteSpace=wrap;html=1;fillColor=#d5e8d4;gradientColor=#97d077;strokeColor=#82b366;fontColor=#000000;align=left;fontSize=12;" parent="98nrfrSy0b_OWZVlQNXL-4" vertex="1">
          <mxGeometry width="750" height="180" as="geometry" />
        </mxCell>
        <mxCell id="98nrfrSy0b_OWZVlQNXL-6" value="GMCR_ExitMode(void)" style="rounded=0;whiteSpace=wrap;html=1;fillColor=#d5e8d4;gradientColor=#97d077;strokeColor=#82b366;fontColor=#000000;fontSize=12;" parent="98nrfrSy0b_OWZVlQNXL-4" vertex="1">
          <mxGeometry width="750" height="45" as="geometry" />
        </mxCell>
        <mxCell id="98nrfrSy0b_OWZVlQNXL-7" value="" style="group;fontSize=12;" parent="1" vertex="1" connectable="0">
          <mxGeometry x="-1600" y="-1840" width="750" height="180" as="geometry" />
        </mxCell>
        <mxCell id="98nrfrSy0b_OWZVlQNXL-8" value="&lt;div style=&quot;font-size: 12px;&quot;&gt;&lt;div style=&quot;font-size: 12px;&quot;&gt;&lt;br&gt;&lt;/div&gt;&lt;/div&gt;" style="rounded=0;whiteSpace=wrap;html=1;fillColor=#d5e8d4;gradientColor=#97d077;strokeColor=#82b366;fontColor=#000000;align=left;fontSize=12;" parent="98nrfrSy0b_OWZVlQNXL-7" vertex="1">
          <mxGeometry width="750" height="180" as="geometry" />
        </mxCell>
        <mxCell id="98nrfrSy0b_OWZVlQNXL-9" value="GMCR_Cyclic&lt;span style=&quot;font-size: 12px; text-align: left;&quot;&gt;(&lt;/span&gt;&lt;span style=&quot;font-size: 12px; background-color: initial;&quot;&gt;t_float32 * f_SnsValue_paf32, t_sAPPLGC_SrvFunc * f_SrvInfo_pas&lt;/span&gt;&lt;span style=&quot;background-color: initial; font-size: 12px;&quot;&gt;)&lt;/span&gt;" style="rounded=0;whiteSpace=wrap;html=1;fillColor=#d5e8d4;gradientColor=#97d077;strokeColor=#82b366;fontColor=#000000;fontSize=12;" parent="98nrfrSy0b_OWZVlQNXL-7" vertex="1">
          <mxGeometry width="750" height="45" as="geometry" />
        </mxCell>
        <mxCell id="98nrfrSy0b_OWZVlQNXL-10" value="" style="group;fontSize=12;" parent="1" vertex="1" connectable="0">
          <mxGeometry x="-1600" y="-1600" width="750" height="180" as="geometry" />
        </mxCell>
        <mxCell id="98nrfrSy0b_OWZVlQNXL-11" value="&lt;div style=&quot;font-size: 12px;&quot;&gt;&lt;div style=&quot;font-size: 12px;&quot;&gt;&lt;br&gt;&lt;/div&gt;&lt;/div&gt;" style="rounded=0;whiteSpace=wrap;html=1;fillColor=#d5e8d4;gradientColor=#97d077;strokeColor=#82b366;fontColor=#000000;align=left;fontSize=12;" parent="98nrfrSy0b_OWZVlQNXL-10" vertex="1">
          <mxGeometry width="750" height="180" as="geometry" />
        </mxCell>
        <mxCell id="98nrfrSy0b_OWZVlQNXL-12" value="GMCR_Init(void)" style="rounded=0;whiteSpace=wrap;html=1;fillColor=#d5e8d4;gradientColor=#97d077;strokeColor=#82b366;fontColor=#000000;fontSize=12;" parent="98nrfrSy0b_OWZVlQNXL-10" vertex="1">
          <mxGeometry width="750" height="45" as="geometry" />
        </mxCell>
        <mxCell id="JK8mf7_tbCUhOHmF9Dw8-1" value="" style="group;fontSize=12;" vertex="1" connectable="0" parent="1">
          <mxGeometry x="-1600" y="-1360" width="750" height="180" as="geometry" />
        </mxCell>
        <mxCell id="JK8mf7_tbCUhOHmF9Dw8-2" value="&lt;div style=&quot;font-size: 12px;&quot;&gt;&lt;div style=&quot;font-size: 12px;&quot;&gt;&lt;br&gt;&lt;/div&gt;&lt;/div&gt;" style="rounded=0;whiteSpace=wrap;html=1;fillColor=#d5e8d4;gradientColor=#97d077;strokeColor=#82b366;fontColor=#000000;align=left;fontSize=12;" vertex="1" parent="JK8mf7_tbCUhOHmF9Dw8-1">
          <mxGeometry width="750" height="180" as="geometry" />
        </mxCell>
        <mxCell id="JK8mf7_tbCUhOHmF9Dw8-3" value="GMCR_GetInfoFromApp(void)" style="rounded=0;whiteSpace=wrap;html=1;fillColor=#d5e8d4;gradientColor=#97d077;strokeColor=#82b366;fontColor=#000000;fontSize=12;" vertex="1" parent="JK8mf7_tbCUhOHmF9Dw8-1">
          <mxGeometry width="750" height="45" as="geometry" />
        </mxCell>
      </root>
    </mxGraphModel>
  </diagram>
  <diagram id="iMlxmvK9lwIVEtIpUKkM" name="cyclic">
    <mxGraphModel dx="987" dy="1747" grid="1" gridSize="10" guides="1" tooltips="1" connect="1" arrows="1" fold="1" page="1" pageScale="1" pageWidth="827" pageHeight="1169" math="0" shadow="0">
      <root>
        <mxCell id="0" />
        <mxCell id="1" parent="0" />
        <mxCell id="hKXMbkcbii0PohTv41RA-1" value="&lt;span style=&quot;font-size: 12px;&quot;&gt;GMCR_Cyclic&lt;/span&gt;&lt;span style=&quot;font-size: 12px; text-align: left;&quot;&gt;(&lt;/span&gt;&lt;span style=&quot;font-size: 12px; background-color: initial;&quot;&gt;t_float32 * f_SnsValue_paf32, t_sAPPLGC_SrvFunc * f_SrvInfo_pas&lt;/span&gt;&lt;span style=&quot;font-size: 12px; background-color: initial;&quot;&gt;)&lt;/span&gt;" style="rounded=0;whiteSpace=wrap;html=1;fillColor=#647687;fontColor=#000000;strokeColor=#314354;fontSize=14;" parent="1" vertex="1">
          <mxGeometry x="34" y="-1169" width="760" height="60" as="geometry" />
        </mxCell>
        <mxCell id="hKXMbkcbii0PohTv41RA-2" style="edgeStyle=orthogonalEdgeStyle;rounded=0;orthogonalLoop=1;jettySize=auto;html=1;exitX=0.5;exitY=1;exitDx=0;exitDy=0;" parent="1" source="hKXMbkcbii0PohTv41RA-3" edge="1">
          <mxGeometry relative="1" as="geometry">
            <mxPoint x="414" y="-980" as="targetPoint" />
          </mxGeometry>
        </mxCell>
        <mxCell id="hKXMbkcbii0PohTv41RA-3" value="Start" style="ellipse;whiteSpace=wrap;html=1;aspect=fixed;fillColor=#f5f5f5;fontColor=#333333;strokeColor=#666666;" parent="1" vertex="1">
          <mxGeometry x="374" y="-1090" width="80" height="80" as="geometry" />
        </mxCell>
        <mxCell id="hKXMbkcbii0PohTv41RA-5" value="switch&amp;nbsp;&lt;span style=&quot;color: rgb(0, 0, 0);&quot;&gt;g_SFMReference_e&lt;/span&gt;" style="rounded=1;whiteSpace=wrap;html=1;fillColor=#f5f5f5;fontColor=#333333;strokeColor=#666666;" parent="1" vertex="1">
          <mxGeometry x="174.75" y="-940" width="478.5" height="40" as="geometry" />
        </mxCell>
        <mxCell id="8aFZVxblfXJpWbPsAbHJ-1" style="edgeStyle=orthogonalEdgeStyle;rounded=0;orthogonalLoop=1;jettySize=auto;html=1;exitX=0.5;exitY=1;exitDx=0;exitDy=0;" parent="1" source="AO-ycJbw9J3eUqd79-Km-1" target="31HQj9Gg6qTyrlbMVfvt-1" edge="1">
          <mxGeometry relative="1" as="geometry" />
        </mxCell>
        <mxCell id="AO-ycJbw9J3eUqd79-Km-1" value="&lt;span style=&quot;color: rgb(0, 0, 0); text-align: left;&quot;&gt;GMCR_FSM_REF_AXE_X&lt;/span&gt;" style="rounded=1;whiteSpace=wrap;html=1;fillColor=#f5f5f5;fontColor=#333333;strokeColor=#666666;" parent="1" vertex="1">
          <mxGeometry x="295.5" y="-784" width="478.5" height="40" as="geometry" />
        </mxCell>
        <mxCell id="dy6Qwh-h4WzZlDWCQ1-i-19" style="edgeStyle=orthogonalEdgeStyle;rounded=0;orthogonalLoop=1;jettySize=auto;html=1;exitX=0.5;exitY=1;exitDx=0;exitDy=0;" parent="1" source="dy6Qwh-h4WzZlDWCQ1-i-2" target="dy6Qwh-h4WzZlDWCQ1-i-16" edge="1">
          <mxGeometry relative="1" as="geometry" />
        </mxCell>
        <mxCell id="dy6Qwh-h4WzZlDWCQ1-i-2" value="&lt;span style=&quot;color: rgb(0, 0, 0); text-align: left;&quot;&gt;GMCR_FSM_REF_AXE_Y&lt;/span&gt;" style="rounded=1;whiteSpace=wrap;html=1;fillColor=#f5f5f5;fontColor=#333333;strokeColor=#666666;" parent="1" vertex="1">
          <mxGeometry x="280" y="-410" width="478.5" height="40" as="geometry" />
        </mxCell>
        <mxCell id="dy6Qwh-h4WzZlDWCQ1-i-3" value="&lt;span style=&quot;color: rgb(0, 0, 0); text-align: left;&quot;&gt;GMCR_FSM_REF_AXE_Z&lt;/span&gt;" style="rounded=1;whiteSpace=wrap;html=1;fillColor=#f5f5f5;fontColor=#333333;strokeColor=#666666;" parent="1" vertex="1">
          <mxGeometry x="295.5" y="-130" width="478.5" height="40" as="geometry" />
        </mxCell>
        <mxCell id="dy6Qwh-h4WzZlDWCQ1-i-12" style="edgeStyle=orthogonalEdgeStyle;rounded=0;orthogonalLoop=1;jettySize=auto;html=1;exitX=0.5;exitY=1;exitDx=0;exitDy=0;" parent="1" source="dy6Qwh-h4WzZlDWCQ1-i-4" target="dy6Qwh-h4WzZlDWCQ1-i-11" edge="1">
          <mxGeometry relative="1" as="geometry" />
        </mxCell>
        <mxCell id="dy6Qwh-h4WzZlDWCQ1-i-18" value="OK" style="edgeLabel;html=1;align=center;verticalAlign=middle;resizable=0;points=[];" parent="dy6Qwh-h4WzZlDWCQ1-i-12" vertex="1" connectable="0">
          <mxGeometry x="0.01" y="1" relative="1" as="geometry">
            <mxPoint as="offset" />
          </mxGeometry>
        </mxCell>
        <mxCell id="dy6Qwh-h4WzZlDWCQ1-i-4" value="&lt;span style=&quot;color: rgb(0, 0, 0); text-align: left;&quot;&gt;Ret_e = s_GMCF_ReferenceAxeX()&lt;/span&gt;" style="rounded=1;whiteSpace=wrap;html=1;fillColor=#f5f5f5;fontColor=#333333;strokeColor=#666666;" parent="1" vertex="1">
          <mxGeometry x="330" y="-630" width="478.5" height="40" as="geometry" />
        </mxCell>
        <mxCell id="dy6Qwh-h4WzZlDWCQ1-i-5" value="g_SnsValue_paf32 = (t_float32 *)&lt;span style=&quot;color: rgb(0, 0, 0);&quot;&gt;f_SnsValue_paf32&lt;/span&gt;" style="rounded=1;whiteSpace=wrap;html=1;fillColor=#f5f5f5;fontColor=#333333;strokeColor=#666666;" parent="1" vertex="1">
          <mxGeometry x="174.75" y="-980" width="478.5" height="40" as="geometry" />
        </mxCell>
        <mxCell id="dy6Qwh-h4WzZlDWCQ1-i-7" value="g_SrvInfo_pas = (t_float32 *)&lt;span style=&quot;color: rgb(0, 0, 0);&quot;&gt;f_SrvInfo_pas&lt;/span&gt;" style="rounded=1;whiteSpace=wrap;html=1;fillColor=#f5f5f5;fontColor=#333333;strokeColor=#666666;" parent="1" vertex="1">
          <mxGeometry x="174.75" y="-940" width="478.5" height="40" as="geometry" />
        </mxCell>
        <mxCell id="dy6Qwh-h4WzZlDWCQ1-i-9" style="edgeStyle=orthogonalEdgeStyle;rounded=0;orthogonalLoop=1;jettySize=auto;html=1;exitX=0;exitY=1;exitDx=0;exitDy=0;" parent="1" source="dy6Qwh-h4WzZlDWCQ1-i-8" target="AO-ycJbw9J3eUqd79-Km-1" edge="1">
          <mxGeometry relative="1" as="geometry">
            <Array as="points">
              <mxPoint x="185" y="-810" />
              <mxPoint x="519" y="-810" />
            </Array>
          </mxGeometry>
        </mxCell>
        <mxCell id="dy6Qwh-h4WzZlDWCQ1-i-13" style="edgeStyle=orthogonalEdgeStyle;rounded=0;orthogonalLoop=1;jettySize=auto;html=1;exitX=0;exitY=1;exitDx=0;exitDy=0;entryX=0.5;entryY=0;entryDx=0;entryDy=0;" parent="1" source="dy6Qwh-h4WzZlDWCQ1-i-8" target="dy6Qwh-h4WzZlDWCQ1-i-2" edge="1">
          <mxGeometry relative="1" as="geometry">
            <Array as="points">
              <mxPoint x="185" y="-440" />
              <mxPoint x="519" y="-440" />
            </Array>
          </mxGeometry>
        </mxCell>
        <mxCell id="dy6Qwh-h4WzZlDWCQ1-i-22" style="edgeStyle=orthogonalEdgeStyle;rounded=0;orthogonalLoop=1;jettySize=auto;html=1;exitX=0;exitY=1;exitDx=0;exitDy=0;" parent="1" source="dy6Qwh-h4WzZlDWCQ1-i-8" target="dy6Qwh-h4WzZlDWCQ1-i-3" edge="1">
          <mxGeometry relative="1" as="geometry">
            <Array as="points">
              <mxPoint x="185" y="-150" />
              <mxPoint x="529" y="-150" />
            </Array>
          </mxGeometry>
        </mxCell>
        <mxCell id="dy6Qwh-h4WzZlDWCQ1-i-8" value="switch g_FSMReference_e" style="rounded=1;whiteSpace=wrap;html=1;fillColor=#f5f5f5;fontColor=#333333;strokeColor=#666666;" parent="1" vertex="1">
          <mxGeometry x="184.75" y="-870" width="478.5" height="40" as="geometry" />
        </mxCell>
        <mxCell id="dy6Qwh-h4WzZlDWCQ1-i-11" value="g_SFMReference_e =&amp;nbsp;&lt;span style=&quot;color: rgb(0, 0, 0); text-align: left;&quot;&gt;GMCR_FSM_REF_AXE_Y&lt;/span&gt;" style="rounded=1;whiteSpace=wrap;html=1;fillColor=#f5f5f5;fontColor=#333333;strokeColor=#666666;" parent="1" vertex="1">
          <mxGeometry x="330" y="-550" width="478.5" height="40" as="geometry" />
        </mxCell>
        <mxCell id="dy6Qwh-h4WzZlDWCQ1-i-20" style="edgeStyle=orthogonalEdgeStyle;rounded=0;orthogonalLoop=1;jettySize=auto;html=1;exitX=0.5;exitY=1;exitDx=0;exitDy=0;" parent="1" source="dy6Qwh-h4WzZlDWCQ1-i-16" target="dy6Qwh-h4WzZlDWCQ1-i-17" edge="1">
          <mxGeometry relative="1" as="geometry" />
        </mxCell>
        <mxCell id="dy6Qwh-h4WzZlDWCQ1-i-21" value="OK" style="edgeLabel;html=1;align=center;verticalAlign=middle;resizable=0;points=[];" parent="dy6Qwh-h4WzZlDWCQ1-i-20" vertex="1" connectable="0">
          <mxGeometry x="0.024" y="1" relative="1" as="geometry">
            <mxPoint as="offset" />
          </mxGeometry>
        </mxCell>
        <mxCell id="dy6Qwh-h4WzZlDWCQ1-i-16" value="&lt;span style=&quot;color: rgb(0, 0, 0); text-align: left;&quot;&gt;Ret_e = s_GMCF_ReferenceAxeY()&lt;/span&gt;" style="rounded=1;whiteSpace=wrap;html=1;fillColor=#f5f5f5;fontColor=#333333;strokeColor=#666666;" parent="1" vertex="1">
          <mxGeometry x="315.5" y="-330" width="478.5" height="40" as="geometry" />
        </mxCell>
        <mxCell id="dy6Qwh-h4WzZlDWCQ1-i-17" value="g_SFMReference_e =&amp;nbsp;&lt;span style=&quot;color: rgb(0, 0, 0); text-align: left;&quot;&gt;GMCR_FSM_REF_AXE_Z&lt;/span&gt;" style="rounded=1;whiteSpace=wrap;html=1;fillColor=#f5f5f5;fontColor=#333333;strokeColor=#666666;" parent="1" vertex="1">
          <mxGeometry x="315.5" y="-250" width="478.5" height="40" as="geometry" />
        </mxCell>
        <mxCell id="dy6Qwh-h4WzZlDWCQ1-i-23" style="edgeStyle=orthogonalEdgeStyle;rounded=0;orthogonalLoop=1;jettySize=auto;html=1;exitX=0.5;exitY=1;exitDx=0;exitDy=0;" parent="1" source="dy6Qwh-h4WzZlDWCQ1-i-3" target="dy6Qwh-h4WzZlDWCQ1-i-25" edge="1">
          <mxGeometry relative="1" as="geometry">
            <mxPoint x="514.5" y="-80" as="sourcePoint" />
          </mxGeometry>
        </mxCell>
        <mxCell id="dy6Qwh-h4WzZlDWCQ1-i-24" style="edgeStyle=orthogonalEdgeStyle;rounded=0;orthogonalLoop=1;jettySize=auto;html=1;exitX=0.5;exitY=1;exitDx=0;exitDy=0;" parent="1" source="dy6Qwh-h4WzZlDWCQ1-i-25" target="dy6Qwh-h4WzZlDWCQ1-i-26" edge="1">
          <mxGeometry relative="1" as="geometry" />
        </mxCell>
        <mxCell id="dy6Qwh-h4WzZlDWCQ1-i-27" value="OK" style="edgeLabel;html=1;align=center;verticalAlign=middle;resizable=0;points=[];" parent="dy6Qwh-h4WzZlDWCQ1-i-24" vertex="1" connectable="0">
          <mxGeometry x="-0.2603" y="-3" relative="1" as="geometry">
            <mxPoint as="offset" />
          </mxGeometry>
        </mxCell>
        <mxCell id="dy6Qwh-h4WzZlDWCQ1-i-25" value="&lt;span style=&quot;color: rgb(0, 0, 0); text-align: left;&quot;&gt;Ret_e = s_GMCRF_ReferenceAxeZ()&lt;/span&gt;" style="rounded=1;whiteSpace=wrap;html=1;fillColor=#f5f5f5;fontColor=#333333;strokeColor=#666666;" parent="1" vertex="1">
          <mxGeometry x="315.5" y="-40" width="478.5" height="40" as="geometry" />
        </mxCell>
        <mxCell id="mXNPZOUNTwqMWI5R8evk-2" style="edgeStyle=orthogonalEdgeStyle;rounded=0;orthogonalLoop=1;jettySize=auto;html=1;exitX=0.5;exitY=1;exitDx=0;exitDy=0;" parent="1" source="dy6Qwh-h4WzZlDWCQ1-i-26" target="mXNPZOUNTwqMWI5R8evk-1" edge="1">
          <mxGeometry relative="1" as="geometry" />
        </mxCell>
        <mxCell id="dy6Qwh-h4WzZlDWCQ1-i-26" value="Ret_e = AGTRY_SetFSMState(AGTRY_FSM_GANTRY_PRE_PAUSE)" style="rounded=1;whiteSpace=wrap;html=1;fillColor=#f5f5f5;fontColor=#333333;strokeColor=#666666;" parent="1" vertex="1">
          <mxGeometry x="315.5" y="40" width="478.5" height="40" as="geometry" />
        </mxCell>
        <mxCell id="mXNPZOUNTwqMWI5R8evk-1" value="g_SFMReference_e =&amp;nbsp;&lt;span style=&quot;color: rgb(0, 0, 0); text-align: left;&quot;&gt;GMCR_SFM_REF_AXE_X&lt;/span&gt;" style="rounded=1;whiteSpace=wrap;html=1;fillColor=#f5f5f5;fontColor=#333333;strokeColor=#666666;" parent="1" vertex="1">
          <mxGeometry x="315.5" y="120" width="478.5" height="40" as="geometry" />
        </mxCell>
        <mxCell id="qSr7ULC-p52LIIdq19db-1" style="edgeStyle=orthogonalEdgeStyle;rounded=0;orthogonalLoop=1;jettySize=auto;html=1;exitX=0.5;exitY=1;exitDx=0;exitDy=0;" parent="1" source="31HQj9Gg6qTyrlbMVfvt-1" target="dy6Qwh-h4WzZlDWCQ1-i-4" edge="1">
          <mxGeometry relative="1" as="geometry" />
        </mxCell>
        <mxCell id="qSr7ULC-p52LIIdq19db-2" value="OK" style="edgeLabel;html=1;align=center;verticalAlign=middle;resizable=0;points=[];" parent="qSr7ULC-p52LIIdq19db-1" vertex="1" connectable="0">
          <mxGeometry x="-0.3011" y="-1" relative="1" as="geometry">
            <mxPoint as="offset" />
          </mxGeometry>
        </mxCell>
        <mxCell id="31HQj9Gg6qTyrlbMVfvt-1" value="g_SrvInfo_pas&amp;nbsp;[&lt;span style=&quot;color: rgba(0, 0, 0, 0); font-family: monospace; font-size: 0px; text-align: start; text-wrap: nowrap;&quot;&gt;%3CmxGraphModel%3E%3Croot%3E%3CmxCell%20id%3D%220%22%2F%3E%3CmxCell%20id%3D%221%22%20parent%3D%220%22%2F%3E%3CmxCell%20id%3D%222%22%20value%3D%22g_SnsValue_af32%5BAPPSNS_SWITCH_LIMIT_Z_MIN%5D%20%3D%20SET%26amp%3Bnbsp%3B%26lt%3Bdiv%26gt%3B%7C%7C%26amp%3Bnbsp%3B%26lt%3Bspan%20style%3D%26quot%3Bbackground-color%3A%20initial%3B%26quot%3B%26gt%3Bg_SnsValue_af32%5BAPPSNS_SWITCH_LIMIT_Z_MIN%5D%20%3D%20SET%26lt%3B%2Fspan%26gt%3B%26lt%3B%2Fdiv%26gt%3B%22%20style%3D%22shape%3Dhexagon%3Bperimeter%3DhexagonPerimeter2%3BwhiteSpace%3Dwrap%3Bhtml%3D1%3BfixedSize%3D1%3BfillColor%3D%23f5f5f5%3BfontColor%3D%23333333%3BstrokeColor%3D%23666666%3B%22%20vertex%3D%221%22%20parent%3D%221%22%3E%3CmxGeometry%20x%3D%22236%22%20y%3D%22-950%22%20width%3D%22355%22%20height%3D%2240%22%20as%3D%22geometry%22%2F%3E%3C%2FmxCell%3E%3C%2Froot%3E%3C%2FmxGraphModel%3E&lt;/span&gt;&lt;span style=&quot;color: rgb(0, 0, 0); text-align: left;&quot;&gt;APPLGC_SRV_GANTRY_X&lt;/span&gt;].health_e ==&amp;nbsp;&lt;div&gt;&lt;span style=&quot;color: rgb(0, 0, 0); text-align: left;&quot;&gt;APPLGC_SRV_FUNC_STATE_ON&lt;/span&gt;&lt;br&gt;&lt;/div&gt;" style="shape=hexagon;perimeter=hexagonPerimeter2;whiteSpace=wrap;html=1;fixedSize=1;fillColor=#f5f5f5;fontColor=#333333;strokeColor=#666666;" parent="1" vertex="1">
          <mxGeometry x="350" y="-710" width="398.25" height="40" as="geometry" />
        </mxCell>
        <mxCell id="obgLV7RVIwbxRRyTByge-1" value="envoyé&amp;nbsp;&lt;div&gt;message application&amp;nbsp;&lt;/div&gt;" style="text;html=1;align=center;verticalAlign=middle;resizable=0;points=[];autosize=1;strokeColor=none;fillColor=none;" vertex="1" parent="1">
          <mxGeometry x="160" y="40" width="140" height="40" as="geometry" />
        </mxCell>
      </root>
    </mxGraphModel>
  </diagram>
  <diagram id="65K2RutdQU4VcfE3Ae1O" name="ReferenceX">
    <mxGraphModel dx="1295" dy="1928" grid="1" gridSize="10" guides="1" tooltips="1" connect="1" arrows="1" fold="1" page="1" pageScale="1" pageWidth="827" pageHeight="1169" math="0" shadow="0">
      <root>
        <mxCell id="0" />
        <mxCell id="1" parent="0" />
        <mxCell id="tuQ2xxRULAIjeOIVZ28I-1" value="&lt;span style=&quot;font-size: 12px;&quot;&gt;s_GMCF_ReferenceAxeX&lt;/span&gt;&lt;span style=&quot;font-size: 12px; text-align: left;&quot;&gt;(&lt;/span&gt;&lt;span style=&quot;font-size: 12px; background-color: initial;&quot;&gt;void&lt;/span&gt;&lt;span style=&quot;font-size: 12px; background-color: initial;&quot;&gt;)&lt;/span&gt;" style="rounded=0;whiteSpace=wrap;html=1;fillColor=#647687;fontColor=#000000;strokeColor=#314354;fontSize=14;" vertex="1" parent="1">
          <mxGeometry x="34" y="-1169" width="760" height="60" as="geometry" />
        </mxCell>
        <mxCell id="tuQ2xxRULAIjeOIVZ28I-2" style="edgeStyle=orthogonalEdgeStyle;rounded=0;orthogonalLoop=1;jettySize=auto;html=1;exitX=0.5;exitY=1;exitDx=0;exitDy=0;entryX=0.5;entryY=0;entryDx=0;entryDy=0;" edge="1" parent="1" source="tuQ2xxRULAIjeOIVZ28I-3" target="7Y_LvMyQIPGtreFmNw-r-3">
          <mxGeometry relative="1" as="geometry">
            <mxPoint x="414" y="-980" as="targetPoint" />
          </mxGeometry>
        </mxCell>
        <mxCell id="tuQ2xxRULAIjeOIVZ28I-3" value="Start" style="ellipse;whiteSpace=wrap;html=1;aspect=fixed;fillColor=#f5f5f5;fontColor=#333333;strokeColor=#666666;" vertex="1" parent="1">
          <mxGeometry x="374" y="-1090" width="80" height="80" as="geometry" />
        </mxCell>
        <mxCell id="tuQ2xxRULAIjeOIVZ28I-4" value="Ret_e = RC_OK" style="rounded=1;whiteSpace=wrap;html=1;fillColor=#f5f5f5;fontColor=#333333;strokeColor=#666666;" vertex="1" parent="1">
          <mxGeometry x="174.25" y="-860" width="478.5" height="40" as="geometry" />
        </mxCell>
        <mxCell id="lbAd2zVRw579VrhJAwLV-2" style="edgeStyle=orthogonalEdgeStyle;rounded=0;orthogonalLoop=1;jettySize=auto;html=1;exitX=0.5;exitY=1;exitDx=0;exitDy=0;" edge="1" parent="1" source="7Y_LvMyQIPGtreFmNw-r-1" target="lbAd2zVRw579VrhJAwLV-1">
          <mxGeometry relative="1" as="geometry" />
        </mxCell>
        <mxCell id="s4OhDom6gBPp26-EgJx3-6" value="True" style="edgeLabel;html=1;align=center;verticalAlign=middle;resizable=0;points=[];" vertex="1" connectable="0" parent="lbAd2zVRw579VrhJAwLV-2">
          <mxGeometry x="-0.0493" y="1" relative="1" as="geometry">
            <mxPoint as="offset" />
          </mxGeometry>
        </mxCell>
        <mxCell id="s4OhDom6gBPp26-EgJx3-4" style="edgeStyle=orthogonalEdgeStyle;rounded=0;orthogonalLoop=1;jettySize=auto;html=1;exitX=0;exitY=0.5;exitDx=0;exitDy=0;entryX=0;entryY=0.5;entryDx=0;entryDy=0;" edge="1" parent="1" source="7Y_LvMyQIPGtreFmNw-r-1" target="s4OhDom6gBPp26-EgJx3-2">
          <mxGeometry relative="1" as="geometry">
            <Array as="points">
              <mxPoint x="120" y="-610" />
              <mxPoint x="120" y="-270" />
            </Array>
          </mxGeometry>
        </mxCell>
        <mxCell id="s4OhDom6gBPp26-EgJx3-5" value="False" style="edgeLabel;html=1;align=center;verticalAlign=middle;resizable=0;points=[];" vertex="1" connectable="0" parent="s4OhDom6gBPp26-EgJx3-4">
          <mxGeometry x="-0.8506" y="2" relative="1" as="geometry">
            <mxPoint as="offset" />
          </mxGeometry>
        </mxCell>
        <mxCell id="7Y_LvMyQIPGtreFmNw-r-1" value="s_SetMvmt_b == False ??" style="shape=hexagon;perimeter=hexagonPerimeter2;whiteSpace=wrap;html=1;fixedSize=1;fillColor=#f5f5f5;fontColor=#333333;strokeColor=#666666;" vertex="1" parent="1">
          <mxGeometry x="218.13" y="-630" width="393.25" height="40" as="geometry" />
        </mxCell>
        <mxCell id="7Y_LvMyQIPGtreFmNw-r-2" value="On va set X pulses,&amp;nbsp;&lt;div&gt;en sachant que x pulses est largement ce qu&#39;il faut&amp;nbsp;&lt;/div&gt;&lt;div&gt;pour atteindre le max, on va attendre d&#39;avoir le sensor de fin course&lt;/div&gt;&lt;div&gt;&amp;nbsp;&lt;/div&gt;" style="text;html=1;align=center;verticalAlign=middle;resizable=0;points=[];autosize=1;strokeColor=none;fillColor=none;" vertex="1" parent="1">
          <mxGeometry x="485" y="-1075" width="380" height="70" as="geometry" />
        </mxCell>
        <mxCell id="ByAEVXq6Ysw-m0Ps0chq-3" style="edgeStyle=orthogonalEdgeStyle;rounded=0;orthogonalLoop=1;jettySize=auto;html=1;exitX=0.5;exitY=1;exitDx=0;exitDy=0;" edge="1" parent="1" source="7Y_LvMyQIPGtreFmNw-r-3" target="tuQ2xxRULAIjeOIVZ28I-4">
          <mxGeometry relative="1" as="geometry" />
        </mxCell>
        <mxCell id="ByAEVXq6Ysw-m0Ps0chq-4" value="OK" style="edgeLabel;html=1;align=center;verticalAlign=middle;resizable=0;points=[];" vertex="1" connectable="0" parent="ByAEVXq6Ysw-m0Ps0chq-3">
          <mxGeometry x="-0.0243" y="3" relative="1" as="geometry">
            <mxPoint x="-3" y="-4" as="offset" />
          </mxGeometry>
        </mxCell>
        <mxCell id="ByAEVXq6Ysw-m0Ps0chq-5" value="True" style="edgeLabel;html=1;align=center;verticalAlign=middle;resizable=0;points=[];" vertex="1" connectable="0" parent="ByAEVXq6Ysw-m0Ps0chq-3">
          <mxGeometry x="-0.1783" y="2" relative="1" as="geometry">
            <mxPoint as="offset" />
          </mxGeometry>
        </mxCell>
        <mxCell id="B3hQ3zq0TwVZsDeX_rW4-1" style="edgeStyle=orthogonalEdgeStyle;rounded=0;orthogonalLoop=1;jettySize=auto;html=1;exitX=0;exitY=0.5;exitDx=0;exitDy=0;entryX=0.5;entryY=0;entryDx=0;entryDy=0;" edge="1" parent="1" source="7Y_LvMyQIPGtreFmNw-r-3" target="7Y_LvMyQIPGtreFmNw-r-1">
          <mxGeometry relative="1" as="geometry">
            <Array as="points">
              <mxPoint x="120" y="-930" />
              <mxPoint x="120" y="-660" />
              <mxPoint x="415" y="-660" />
            </Array>
          </mxGeometry>
        </mxCell>
        <mxCell id="FBBDPBnqM3hAQn78NWwt-7" value="False" style="edgeLabel;html=1;align=center;verticalAlign=middle;resizable=0;points=[];" vertex="1" connectable="0" parent="B3hQ3zq0TwVZsDeX_rW4-1">
          <mxGeometry x="-0.8191" y="-3" relative="1" as="geometry">
            <mxPoint y="3" as="offset" />
          </mxGeometry>
        </mxCell>
        <mxCell id="7Y_LvMyQIPGtreFmNw-r-3" value="g_SnsValue_af32[APPSNS_SWITCH_LIMIT_X_MIN] = SET&amp;nbsp;&lt;div&gt;||&amp;nbsp;&lt;span style=&quot;background-color: initial;&quot;&gt;g_SnsValue_af32[APPSNS_SWITCH_LIMIT_X_MAX] = SET&lt;/span&gt;&lt;/div&gt;" style="shape=hexagon;perimeter=hexagonPerimeter2;whiteSpace=wrap;html=1;fixedSize=1;fillColor=#f5f5f5;fontColor=#333333;strokeColor=#666666;" vertex="1" parent="1">
          <mxGeometry x="236" y="-950" width="355" height="40" as="geometry" />
        </mxCell>
        <mxCell id="ByAEVXq6Ysw-m0Ps0chq-1" value="Vérification qu&#39;on est bien&amp;nbsp;&lt;div&gt;dans le bon état&lt;/div&gt;" style="text;html=1;align=center;verticalAlign=middle;resizable=0;points=[];autosize=1;strokeColor=none;fillColor=none;" vertex="1" parent="1">
          <mxGeometry x="20" y="-987" width="160" height="40" as="geometry" />
        </mxCell>
        <mxCell id="ByAEVXq6Ysw-m0Ps0chq-2" value="motor référencé on arrête les pulses" style="text;html=1;align=center;verticalAlign=middle;resizable=0;points=[];autosize=1;strokeColor=none;fillColor=none;" vertex="1" parent="1">
          <mxGeometry x="525" y="-910" width="220" height="30" as="geometry" />
        </mxCell>
        <mxCell id="lbAd2zVRw579VrhJAwLV-1" value="&lt;font color=&quot;#000000&quot;&gt;g_SrvInfo_pas&amp;nbsp;[&lt;span style=&quot;text-wrap: nowrap; font-family: monospace; font-size: 0px; text-align: start;&quot;&gt;3E&lt;/span&gt;&lt;span style=&quot;text-align: left;&quot;&gt;APPLGC_SRV_GANTRY_X&lt;/span&gt;].setPoint_f32&lt;/font&gt;&lt;div&gt;&lt;font color=&quot;#000000&quot;&gt;[&lt;/font&gt;&lt;span style=&quot;color: rgb(0, 0, 0); text-align: left;&quot;&gt;APPLGC_SRV_GANTRY_X_ACT_MOTOR_X_PULSE_LEFT&lt;/span&gt;&lt;font color=&quot;#000000&quot;&gt;] = AGTRY_SWITCH_LIMIT_VALUE&lt;/font&gt;&lt;/div&gt;" style="rounded=1;whiteSpace=wrap;html=1;fillColor=#f5f5f5;fontColor=#333333;strokeColor=#666666;" vertex="1" parent="1">
          <mxGeometry x="175.5" y="-560" width="478.5" height="50" as="geometry" />
        </mxCell>
        <mxCell id="lbAd2zVRw579VrhJAwLV-3" value="Ret_e = RC_WARNING_BUSY" style="rounded=1;whiteSpace=wrap;html=1;fillColor=#f5f5f5;fontColor=#333333;strokeColor=#666666;" vertex="1" parent="1">
          <mxGeometry x="174" y="-420" width="478.5" height="40" as="geometry" />
        </mxCell>
        <mxCell id="FBBDPBnqM3hAQn78NWwt-1" value="&lt;font color=&quot;#000000&quot;&gt;g_SrvInfo_pas&amp;nbsp;[&lt;span style=&quot;text-wrap: nowrap; font-family: monospace; font-size: 0px; text-align: start;&quot;&gt;3E&lt;/span&gt;&lt;span style=&quot;text-align: left;&quot;&gt;APPLGC_SRV_GANTRY_X&lt;/span&gt;].setPoint_f32&lt;/font&gt;&lt;div&gt;&lt;font color=&quot;#000000&quot;&gt;[&lt;/font&gt;&lt;span style=&quot;color: rgb(0, 0, 0); text-align: left;&quot;&gt;APPLGC_SRV_GANTRY_X_ACT_MOTOR_X_PULSE_RIGHT&lt;/span&gt;&lt;font color=&quot;#000000&quot;&gt;] = AGTRY_SWITCH_LIMIT_VALUE&lt;/font&gt;&lt;/div&gt;" style="rounded=1;whiteSpace=wrap;html=1;fillColor=#f5f5f5;fontColor=#333333;strokeColor=#666666;" vertex="1" parent="1">
          <mxGeometry x="174.75" y="-510" width="478.5" height="50" as="geometry" />
        </mxCell>
        <mxCell id="FBBDPBnqM3hAQn78NWwt-4" value="s_SetMvmt_b = True" style="rounded=1;whiteSpace=wrap;html=1;fillColor=#f5f5f5;fontColor=#333333;strokeColor=#666666;" vertex="1" parent="1">
          <mxGeometry x="174" y="-460" width="478.5" height="40" as="geometry" />
        </mxCell>
        <mxCell id="FBBDPBnqM3hAQn78NWwt-5" value="&lt;font color=&quot;#000000&quot;&gt;g_SrvInfo_pas&amp;nbsp;[&lt;span style=&quot;text-wrap: nowrap; font-family: monospace; font-size: 0px; text-align: start;&quot;&gt;3E&lt;/span&gt;&lt;span style=&quot;text-align: left;&quot;&gt;APPLGC_SRV_GANTRY_X&lt;/span&gt;].setPoint_f32&lt;/font&gt;&lt;div&gt;&lt;font color=&quot;#000000&quot;&gt;[&lt;/font&gt;&lt;span style=&quot;color: rgb(0, 0, 0); text-align: left;&quot;&gt;APPLGC_SRV_GANTRY_X_ACT_MOTOR_X_PULSE_LEFT&lt;/span&gt;&lt;font color=&quot;#000000&quot;&gt;] = 0.0&lt;/font&gt;&lt;/div&gt;" style="rounded=1;whiteSpace=wrap;html=1;fillColor=#f5f5f5;fontColor=#333333;strokeColor=#666666;" vertex="1" parent="1">
          <mxGeometry x="175" y="-820" width="478.5" height="50" as="geometry" />
        </mxCell>
        <mxCell id="FBBDPBnqM3hAQn78NWwt-6" value="&lt;font color=&quot;#000000&quot;&gt;g_SrvInfo_pas&amp;nbsp;[&lt;span style=&quot;text-wrap: nowrap; font-family: monospace; font-size: 0px; text-align: start;&quot;&gt;3E&lt;/span&gt;&lt;span style=&quot;text-align: left;&quot;&gt;APPLGC_SRV_GANTRY_X&lt;/span&gt;].setPoint_f32&lt;/font&gt;&lt;div&gt;&lt;font color=&quot;#000000&quot;&gt;[&lt;/font&gt;&lt;span style=&quot;color: rgb(0, 0, 0); text-align: left;&quot;&gt;APPLGC_SRV_GANTRY_X_ACT_MOTOR_X_PULSE_RIGHT&lt;/span&gt;&lt;font color=&quot;#000000&quot;&gt;] = 0.0&lt;/font&gt;&lt;/div&gt;" style="rounded=1;whiteSpace=wrap;html=1;fillColor=#f5f5f5;fontColor=#333333;strokeColor=#666666;" vertex="1" parent="1">
          <mxGeometry x="174" y="-770" width="478.5" height="50" as="geometry" />
        </mxCell>
        <mxCell id="s4OhDom6gBPp26-EgJx3-1" style="edgeStyle=orthogonalEdgeStyle;rounded=0;orthogonalLoop=1;jettySize=auto;html=1;exitX=0.5;exitY=1;exitDx=0;exitDy=0;" edge="1" parent="1" source="s4OhDom6gBPp26-EgJx3-2" target="s4OhDom6gBPp26-EgJx3-3">
          <mxGeometry relative="1" as="geometry" />
        </mxCell>
        <mxCell id="s4OhDom6gBPp26-EgJx3-2" value="" style="shape=hexagon;perimeter=hexagonPerimeter2;whiteSpace=wrap;html=1;fixedSize=1;fillColor=#f5f5f5;fontColor=#333333;strokeColor=#666666;" vertex="1" parent="1">
          <mxGeometry x="204.13" y="-290" width="393.25" height="40" as="geometry" />
        </mxCell>
        <mxCell id="s4OhDom6gBPp26-EgJx3-3" value="Ret_e = RC_WARNING_BUSY" style="rounded=1;whiteSpace=wrap;html=1;fillColor=#f5f5f5;fontColor=#333333;strokeColor=#666666;" vertex="1" parent="1">
          <mxGeometry x="160" y="-180" width="478.5" height="40" as="geometry" />
        </mxCell>
      </root>
    </mxGraphModel>
  </diagram>
  <diagram id="LHlec0seMV4eQ4h7axTo" name="ReferenceY">
    <mxGraphModel dx="829" dy="1655" grid="1" gridSize="10" guides="1" tooltips="1" connect="1" arrows="1" fold="1" page="1" pageScale="1" pageWidth="827" pageHeight="1169" math="0" shadow="0">
      <root>
        <mxCell id="0" />
        <mxCell id="1" parent="0" />
        <mxCell id="wrggKv3u7RQOU47B-BdM-23" value="&lt;span style=&quot;font-size: 12px;&quot;&gt;s_GMCF_ReferenceAxeY&lt;/span&gt;&lt;span style=&quot;font-size: 12px; text-align: left;&quot;&gt;(&lt;/span&gt;&lt;span style=&quot;font-size: 12px; background-color: initial;&quot;&gt;void&lt;/span&gt;&lt;span style=&quot;font-size: 12px; background-color: initial;&quot;&gt;)&lt;/span&gt;" style="rounded=0;whiteSpace=wrap;html=1;fillColor=#647687;fontColor=#000000;strokeColor=#314354;fontSize=14;" vertex="1" parent="1">
          <mxGeometry x="54" y="-1149" width="760" height="60" as="geometry" />
        </mxCell>
        <mxCell id="wrggKv3u7RQOU47B-BdM-24" style="edgeStyle=orthogonalEdgeStyle;rounded=0;orthogonalLoop=1;jettySize=auto;html=1;exitX=0.5;exitY=1;exitDx=0;exitDy=0;entryX=0.5;entryY=0;entryDx=0;entryDy=0;" edge="1" parent="1" source="wrggKv3u7RQOU47B-BdM-25" target="wrggKv3u7RQOU47B-BdM-35">
          <mxGeometry relative="1" as="geometry">
            <mxPoint x="434" y="-960" as="targetPoint" />
          </mxGeometry>
        </mxCell>
        <mxCell id="wrggKv3u7RQOU47B-BdM-25" value="Start" style="ellipse;whiteSpace=wrap;html=1;aspect=fixed;fillColor=#f5f5f5;fontColor=#333333;strokeColor=#666666;" vertex="1" parent="1">
          <mxGeometry x="394" y="-1070" width="80" height="80" as="geometry" />
        </mxCell>
        <mxCell id="wrggKv3u7RQOU47B-BdM-26" value="Ret_e = RC_OK" style="rounded=1;whiteSpace=wrap;html=1;fillColor=#f5f5f5;fontColor=#333333;strokeColor=#666666;" vertex="1" parent="1">
          <mxGeometry x="194.25" y="-840" width="478.5" height="40" as="geometry" />
        </mxCell>
        <mxCell id="wrggKv3u7RQOU47B-BdM-27" style="edgeStyle=orthogonalEdgeStyle;rounded=0;orthogonalLoop=1;jettySize=auto;html=1;exitX=0.5;exitY=1;exitDx=0;exitDy=0;" edge="1" parent="1" source="wrggKv3u7RQOU47B-BdM-28" target="wrggKv3u7RQOU47B-BdM-38">
          <mxGeometry relative="1" as="geometry" />
        </mxCell>
        <mxCell id="6Nz9VnTtQPdjy0679E15-3" value="True" style="edgeLabel;html=1;align=center;verticalAlign=middle;resizable=0;points=[];" vertex="1" connectable="0" parent="wrggKv3u7RQOU47B-BdM-27">
          <mxGeometry x="-0.2358" relative="1" as="geometry">
            <mxPoint y="3" as="offset" />
          </mxGeometry>
        </mxCell>
        <mxCell id="wrggKv3u7RQOU47B-BdM-28" value="s_SetMvmt_b == False ??" style="shape=hexagon;perimeter=hexagonPerimeter2;whiteSpace=wrap;html=1;fixedSize=1;fillColor=#f5f5f5;fontColor=#333333;strokeColor=#666666;" vertex="1" parent="1">
          <mxGeometry x="238.13" y="-610" width="393.25" height="40" as="geometry" />
        </mxCell>
        <mxCell id="wrggKv3u7RQOU47B-BdM-29" value="On va set X pulses,&amp;nbsp;&lt;div&gt;en sachant que x pulses est largement ce qu&#39;il faut&amp;nbsp;&lt;/div&gt;&lt;div&gt;pour atteindre le max, on va attendre d&#39;avoir le sensor de fin course&lt;/div&gt;&lt;div&gt;&amp;nbsp;&lt;/div&gt;" style="text;html=1;align=center;verticalAlign=middle;resizable=0;points=[];autosize=1;strokeColor=none;fillColor=none;" vertex="1" parent="1">
          <mxGeometry x="505" y="-1055" width="380" height="70" as="geometry" />
        </mxCell>
        <mxCell id="wrggKv3u7RQOU47B-BdM-30" style="edgeStyle=orthogonalEdgeStyle;rounded=0;orthogonalLoop=1;jettySize=auto;html=1;exitX=0.5;exitY=1;exitDx=0;exitDy=0;" edge="1" parent="1" source="wrggKv3u7RQOU47B-BdM-35" target="wrggKv3u7RQOU47B-BdM-26">
          <mxGeometry relative="1" as="geometry" />
        </mxCell>
        <mxCell id="wrggKv3u7RQOU47B-BdM-31" value="OK" style="edgeLabel;html=1;align=center;verticalAlign=middle;resizable=0;points=[];" vertex="1" connectable="0" parent="wrggKv3u7RQOU47B-BdM-30">
          <mxGeometry x="-0.0243" y="3" relative="1" as="geometry">
            <mxPoint x="-3" y="-4" as="offset" />
          </mxGeometry>
        </mxCell>
        <mxCell id="wrggKv3u7RQOU47B-BdM-32" value="True" style="edgeLabel;html=1;align=center;verticalAlign=middle;resizable=0;points=[];" vertex="1" connectable="0" parent="wrggKv3u7RQOU47B-BdM-30">
          <mxGeometry x="-0.1783" y="2" relative="1" as="geometry">
            <mxPoint as="offset" />
          </mxGeometry>
        </mxCell>
        <mxCell id="wrggKv3u7RQOU47B-BdM-33" style="edgeStyle=orthogonalEdgeStyle;rounded=0;orthogonalLoop=1;jettySize=auto;html=1;exitX=0;exitY=0.5;exitDx=0;exitDy=0;entryX=0.5;entryY=0;entryDx=0;entryDy=0;" edge="1" parent="1" source="wrggKv3u7RQOU47B-BdM-35" target="wrggKv3u7RQOU47B-BdM-28">
          <mxGeometry relative="1" as="geometry">
            <Array as="points">
              <mxPoint x="170" y="-910" />
              <mxPoint x="170" y="-670" />
              <mxPoint x="435" y="-670" />
            </Array>
          </mxGeometry>
        </mxCell>
        <mxCell id="wrggKv3u7RQOU47B-BdM-34" value="False" style="edgeLabel;html=1;align=center;verticalAlign=middle;resizable=0;points=[];" vertex="1" connectable="0" parent="wrggKv3u7RQOU47B-BdM-33">
          <mxGeometry x="-0.8191" y="-3" relative="1" as="geometry">
            <mxPoint y="3" as="offset" />
          </mxGeometry>
        </mxCell>
        <mxCell id="wrggKv3u7RQOU47B-BdM-35" value="g_SnsValue_af32[APPSNS_SWITCH_LIMIT_Y_MIN] = SET&amp;nbsp;&lt;div&gt;||&amp;nbsp;&lt;span style=&quot;background-color: initial;&quot;&gt;g_SnsValue_af32[APPSNS_SWITCH_LIMIT_Y_MAX] = SET&lt;/span&gt;&lt;/div&gt;" style="shape=hexagon;perimeter=hexagonPerimeter2;whiteSpace=wrap;html=1;fixedSize=1;fillColor=#f5f5f5;fontColor=#333333;strokeColor=#666666;" vertex="1" parent="1">
          <mxGeometry x="256" y="-930" width="355" height="40" as="geometry" />
        </mxCell>
        <mxCell id="wrggKv3u7RQOU47B-BdM-36" value="Vérification qu&#39;on est bien&amp;nbsp;&lt;div&gt;dans le bon état&lt;/div&gt;" style="text;html=1;align=center;verticalAlign=middle;resizable=0;points=[];autosize=1;strokeColor=none;fillColor=none;" vertex="1" parent="1">
          <mxGeometry x="40" y="-967" width="160" height="40" as="geometry" />
        </mxCell>
        <mxCell id="wrggKv3u7RQOU47B-BdM-37" value="motor référencé on arrête les pulses" style="text;html=1;align=center;verticalAlign=middle;resizable=0;points=[];autosize=1;strokeColor=none;fillColor=none;" vertex="1" parent="1">
          <mxGeometry x="545" y="-890" width="220" height="30" as="geometry" />
        </mxCell>
        <mxCell id="wrggKv3u7RQOU47B-BdM-38" value="&lt;font color=&quot;#000000&quot;&gt;g_SrvInfo_pas&amp;nbsp;[&lt;span style=&quot;text-wrap: nowrap; font-family: monospace; font-size: 0px; text-align: start;&quot;&gt;3E&lt;/span&gt;&lt;span style=&quot;text-align: left;&quot;&gt;APPLGC_SRV_GANTRY_Y]&lt;/span&gt;.setPoint_f32&lt;/font&gt;&lt;div&gt;&lt;font color=&quot;#000000&quot;&gt;[&lt;/font&gt;&lt;span style=&quot;color: rgb(0, 0, 0); text-align: left;&quot;&gt;APPLGC_SRV_GANTRY_Y_ACT_MOTOR_Y_PULSE&lt;/span&gt;&lt;font color=&quot;#000000&quot;&gt;] = AGTRY_SWITCH_LIMIT_VALUE&lt;/font&gt;&lt;/div&gt;" style="rounded=1;whiteSpace=wrap;html=1;fillColor=#f5f5f5;fontColor=#333333;strokeColor=#666666;" vertex="1" parent="1">
          <mxGeometry x="195.5" y="-540" width="478.5" height="50" as="geometry" />
        </mxCell>
        <mxCell id="wrggKv3u7RQOU47B-BdM-39" value="Ret_e = RC_WARNING_BUSY" style="rounded=1;whiteSpace=wrap;html=1;fillColor=#f5f5f5;fontColor=#333333;strokeColor=#666666;" vertex="1" parent="1">
          <mxGeometry x="194" y="-400" width="478.5" height="40" as="geometry" />
        </mxCell>
        <mxCell id="wrggKv3u7RQOU47B-BdM-40" value="&lt;font color=&quot;#000000&quot;&gt;g_SrvInfo_pas&amp;nbsp;[&lt;span style=&quot;text-wrap: nowrap; font-family: monospace; font-size: 0px; text-align: start;&quot;&gt;3E&lt;/span&gt;&lt;span style=&quot;text-align: left;&quot;&gt;APPLGC_SRV_GANTRY_Y&lt;/span&gt;].setPoint_f32&lt;/font&gt;&lt;div&gt;&lt;font color=&quot;#000000&quot;&gt;[&lt;/font&gt;&lt;span style=&quot;color: rgb(0, 0, 0); text-align: left;&quot;&gt;APPLGC_SRV_GANTRY_Y_ACT_MOTOR_Y_PULSE&lt;/span&gt;&lt;font color=&quot;#000000&quot;&gt;] = AGTRY_SWITCH_LIMIT_VALUE&lt;/font&gt;&lt;/div&gt;" style="rounded=1;whiteSpace=wrap;html=1;fillColor=#f5f5f5;fontColor=#333333;strokeColor=#666666;" vertex="1" parent="1">
          <mxGeometry x="194.75" y="-490" width="478.5" height="50" as="geometry" />
        </mxCell>
        <mxCell id="wrggKv3u7RQOU47B-BdM-42" value="s_SetMvmt_b = True" style="rounded=1;whiteSpace=wrap;html=1;fillColor=#f5f5f5;fontColor=#333333;strokeColor=#666666;" vertex="1" parent="1">
          <mxGeometry x="194" y="-440" width="478.5" height="40" as="geometry" />
        </mxCell>
        <mxCell id="wrggKv3u7RQOU47B-BdM-43" value="&lt;font color=&quot;#000000&quot;&gt;g_SrvInfo_pas&amp;nbsp;[&lt;span style=&quot;text-wrap: nowrap; font-family: monospace; font-size: 0px; text-align: start;&quot;&gt;3E&lt;/span&gt;&lt;span style=&quot;text-align: left;&quot;&gt;APPLGC_SRV_GANTRY_Y&lt;/span&gt;].setPoint_f32&lt;/font&gt;&lt;div&gt;&lt;font color=&quot;#000000&quot;&gt;[&lt;/font&gt;&lt;span style=&quot;color: rgb(0, 0, 0); text-align: left;&quot;&gt;APPLGC_SRV_GANTRY_X_ACT_MOTOR_Y_PULSE&lt;/span&gt;&lt;font color=&quot;#000000&quot;&gt;] = 0.0&lt;/font&gt;&lt;/div&gt;" style="rounded=1;whiteSpace=wrap;html=1;fillColor=#f5f5f5;fontColor=#333333;strokeColor=#666666;" vertex="1" parent="1">
          <mxGeometry x="195" y="-800" width="478.5" height="50" as="geometry" />
        </mxCell>
        <mxCell id="6Nz9VnTtQPdjy0679E15-6" style="edgeStyle=orthogonalEdgeStyle;rounded=0;orthogonalLoop=1;jettySize=auto;html=1;exitX=0.5;exitY=1;exitDx=0;exitDy=0;" edge="1" parent="1" source="6Nz9VnTtQPdjy0679E15-1" target="6Nz9VnTtQPdjy0679E15-5">
          <mxGeometry relative="1" as="geometry" />
        </mxCell>
        <mxCell id="6Nz9VnTtQPdjy0679E15-1" value="" style="shape=hexagon;perimeter=hexagonPerimeter2;whiteSpace=wrap;html=1;fixedSize=1;fillColor=#f5f5f5;fontColor=#333333;strokeColor=#666666;" vertex="1" parent="1">
          <mxGeometry x="238.13" y="-290" width="393.25" height="40" as="geometry" />
        </mxCell>
        <mxCell id="6Nz9VnTtQPdjy0679E15-2" style="edgeStyle=orthogonalEdgeStyle;rounded=0;orthogonalLoop=1;jettySize=auto;html=1;exitX=0;exitY=0.5;exitDx=0;exitDy=0;entryX=0;entryY=0.5;entryDx=0;entryDy=0;" edge="1" parent="1" source="wrggKv3u7RQOU47B-BdM-28" target="6Nz9VnTtQPdjy0679E15-1">
          <mxGeometry relative="1" as="geometry">
            <Array as="points">
              <mxPoint x="110" y="-590" />
              <mxPoint x="110" y="-270" />
            </Array>
          </mxGeometry>
        </mxCell>
        <mxCell id="6Nz9VnTtQPdjy0679E15-4" value="False" style="edgeLabel;html=1;align=center;verticalAlign=middle;resizable=0;points=[];" vertex="1" connectable="0" parent="6Nz9VnTtQPdjy0679E15-2">
          <mxGeometry x="-0.8403" y="-1" relative="1" as="geometry">
            <mxPoint as="offset" />
          </mxGeometry>
        </mxCell>
        <mxCell id="6Nz9VnTtQPdjy0679E15-5" value="Ret_e = RC_WARNING_BUSY" style="rounded=1;whiteSpace=wrap;html=1;fillColor=#f5f5f5;fontColor=#333333;strokeColor=#666666;" vertex="1" parent="1">
          <mxGeometry x="194" y="-180" width="478.5" height="40" as="geometry" />
        </mxCell>
      </root>
    </mxGraphModel>
  </diagram>
  <diagram id="t4nF_vP2GDA6HyWrjQuj" name="ReferenceZ">
    <mxGraphModel dx="2072" dy="2383" grid="1" gridSize="10" guides="1" tooltips="1" connect="1" arrows="1" fold="1" page="1" pageScale="1" pageWidth="827" pageHeight="1169" math="0" shadow="0">
      <root>
        <mxCell id="0" />
        <mxCell id="1" parent="0" />
        <mxCell id="wRAR-cZHQRiNVdQfNyx3-1" value="&lt;span style=&quot;font-size: 12px;&quot;&gt;s_GMCF_ReferenceAxeZ&lt;/span&gt;&lt;span style=&quot;font-size: 12px; text-align: left;&quot;&gt;(&lt;/span&gt;&lt;span style=&quot;font-size: 12px; background-color: initial;&quot;&gt;void&lt;/span&gt;&lt;span style=&quot;font-size: 12px; background-color: initial;&quot;&gt;)&lt;/span&gt;" style="rounded=0;whiteSpace=wrap;html=1;fillColor=#647687;fontColor=#000000;strokeColor=#314354;fontSize=14;" parent="1" vertex="1">
          <mxGeometry x="34" y="-1169" width="760" height="60" as="geometry" />
        </mxCell>
        <mxCell id="wRAR-cZHQRiNVdQfNyx3-2" style="edgeStyle=orthogonalEdgeStyle;rounded=0;orthogonalLoop=1;jettySize=auto;html=1;exitX=0.5;exitY=1;exitDx=0;exitDy=0;entryX=0.5;entryY=0;entryDx=0;entryDy=0;" parent="1" source="wRAR-cZHQRiNVdQfNyx3-3" target="wRAR-cZHQRiNVdQfNyx3-13" edge="1">
          <mxGeometry relative="1" as="geometry">
            <mxPoint x="414" y="-980" as="targetPoint" />
          </mxGeometry>
        </mxCell>
        <mxCell id="wRAR-cZHQRiNVdQfNyx3-3" value="Start" style="ellipse;whiteSpace=wrap;html=1;aspect=fixed;fillColor=#f5f5f5;fontColor=#333333;strokeColor=#666666;" parent="1" vertex="1">
          <mxGeometry x="374" y="-1090" width="80" height="80" as="geometry" />
        </mxCell>
        <mxCell id="wRAR-cZHQRiNVdQfNyx3-4" value="Ret_e = RC_OK" style="rounded=1;whiteSpace=wrap;html=1;fillColor=#f5f5f5;fontColor=#333333;strokeColor=#666666;" parent="1" vertex="1">
          <mxGeometry x="174.25" y="-860" width="478.5" height="40" as="geometry" />
        </mxCell>
        <mxCell id="wRAR-cZHQRiNVdQfNyx3-5" style="edgeStyle=orthogonalEdgeStyle;rounded=0;orthogonalLoop=1;jettySize=auto;html=1;exitX=0.5;exitY=1;exitDx=0;exitDy=0;" parent="1" source="wRAR-cZHQRiNVdQfNyx3-6" target="wRAR-cZHQRiNVdQfNyx3-16" edge="1">
          <mxGeometry relative="1" as="geometry" />
        </mxCell>
        <mxCell id="Pj4DasiIP4NsNu8h7WGW-1" value="True" style="edgeLabel;html=1;align=center;verticalAlign=middle;resizable=0;points=[];" parent="wRAR-cZHQRiNVdQfNyx3-5" vertex="1" connectable="0">
          <mxGeometry x="-0.1185" relative="1" as="geometry">
            <mxPoint as="offset" />
          </mxGeometry>
        </mxCell>
        <mxCell id="Pj4DasiIP4NsNu8h7WGW-3" style="edgeStyle=orthogonalEdgeStyle;rounded=0;orthogonalLoop=1;jettySize=auto;html=1;exitX=0;exitY=0.5;exitDx=0;exitDy=0;entryX=0;entryY=0.5;entryDx=0;entryDy=0;" parent="1" source="wRAR-cZHQRiNVdQfNyx3-6" target="Pj4DasiIP4NsNu8h7WGW-2" edge="1">
          <mxGeometry relative="1" as="geometry">
            <Array as="points">
              <mxPoint x="120" y="-610" />
              <mxPoint x="120" y="-350" />
            </Array>
          </mxGeometry>
        </mxCell>
        <mxCell id="wRAR-cZHQRiNVdQfNyx3-6" value="s_SetMvmt_b == False ??" style="shape=hexagon;perimeter=hexagonPerimeter2;whiteSpace=wrap;html=1;fixedSize=1;fillColor=#f5f5f5;fontColor=#333333;strokeColor=#666666;" parent="1" vertex="1">
          <mxGeometry x="218.13" y="-630" width="393.25" height="40" as="geometry" />
        </mxCell>
        <mxCell id="wRAR-cZHQRiNVdQfNyx3-7" value="On va set X pulses,&amp;nbsp;&lt;div&gt;en sachant que x pulses est largement ce qu&#39;il faut&amp;nbsp;&lt;/div&gt;&lt;div&gt;pour atteindre le max, on va attendre d&#39;avoir le sensor de fin course&lt;/div&gt;&lt;div&gt;&amp;nbsp;&lt;/div&gt;" style="text;html=1;align=center;verticalAlign=middle;resizable=0;points=[];autosize=1;strokeColor=none;fillColor=none;" parent="1" vertex="1">
          <mxGeometry x="485" y="-1075" width="380" height="70" as="geometry" />
        </mxCell>
        <mxCell id="wRAR-cZHQRiNVdQfNyx3-8" style="edgeStyle=orthogonalEdgeStyle;rounded=0;orthogonalLoop=1;jettySize=auto;html=1;exitX=0.5;exitY=1;exitDx=0;exitDy=0;" parent="1" source="wRAR-cZHQRiNVdQfNyx3-13" target="wRAR-cZHQRiNVdQfNyx3-4" edge="1">
          <mxGeometry relative="1" as="geometry" />
        </mxCell>
        <mxCell id="wRAR-cZHQRiNVdQfNyx3-9" value="OK" style="edgeLabel;html=1;align=center;verticalAlign=middle;resizable=0;points=[];" parent="wRAR-cZHQRiNVdQfNyx3-8" vertex="1" connectable="0">
          <mxGeometry x="-0.0243" y="3" relative="1" as="geometry">
            <mxPoint x="-3" y="-4" as="offset" />
          </mxGeometry>
        </mxCell>
        <mxCell id="wRAR-cZHQRiNVdQfNyx3-10" value="True" style="edgeLabel;html=1;align=center;verticalAlign=middle;resizable=0;points=[];" parent="wRAR-cZHQRiNVdQfNyx3-8" vertex="1" connectable="0">
          <mxGeometry x="-0.1783" y="2" relative="1" as="geometry">
            <mxPoint as="offset" />
          </mxGeometry>
        </mxCell>
        <mxCell id="wRAR-cZHQRiNVdQfNyx3-11" style="edgeStyle=orthogonalEdgeStyle;rounded=0;orthogonalLoop=1;jettySize=auto;html=1;exitX=0;exitY=0.5;exitDx=0;exitDy=0;entryX=0.5;entryY=0;entryDx=0;entryDy=0;" parent="1" source="wRAR-cZHQRiNVdQfNyx3-13" target="wRAR-cZHQRiNVdQfNyx3-6" edge="1">
          <mxGeometry relative="1" as="geometry">
            <Array as="points">
              <mxPoint x="150" y="-930" />
              <mxPoint x="150" y="-660" />
              <mxPoint x="415" y="-660" />
            </Array>
          </mxGeometry>
        </mxCell>
        <mxCell id="wRAR-cZHQRiNVdQfNyx3-12" value="False" style="edgeLabel;html=1;align=center;verticalAlign=middle;resizable=0;points=[];" parent="wRAR-cZHQRiNVdQfNyx3-11" vertex="1" connectable="0">
          <mxGeometry x="-0.8191" y="-3" relative="1" as="geometry">
            <mxPoint y="3" as="offset" />
          </mxGeometry>
        </mxCell>
        <mxCell id="wRAR-cZHQRiNVdQfNyx3-13" value="g_SnsValue_af32[APPSNS_SWITCH_LIMIT_Z_MIN] = SET&amp;nbsp;&lt;div&gt;||&amp;nbsp;&lt;span style=&quot;background-color: initial;&quot;&gt;g_SnsValue_af32[APPSNS_SWITCH_LIMIT_Z_MAX] = SET&lt;/span&gt;&lt;/div&gt;" style="shape=hexagon;perimeter=hexagonPerimeter2;whiteSpace=wrap;html=1;fixedSize=1;fillColor=#f5f5f5;fontColor=#333333;strokeColor=#666666;" parent="1" vertex="1">
          <mxGeometry x="236" y="-950" width="355" height="40" as="geometry" />
        </mxCell>
        <mxCell id="wRAR-cZHQRiNVdQfNyx3-14" value="Vérification qu&#39;on est bien&amp;nbsp;&lt;div&gt;dans le bon état&lt;/div&gt;" style="text;html=1;align=center;verticalAlign=middle;resizable=0;points=[];autosize=1;strokeColor=none;fillColor=none;" parent="1" vertex="1">
          <mxGeometry x="20" y="-987" width="160" height="40" as="geometry" />
        </mxCell>
        <mxCell id="wRAR-cZHQRiNVdQfNyx3-15" value="motor référencé on arrête les pulses" style="text;html=1;align=center;verticalAlign=middle;resizable=0;points=[];autosize=1;strokeColor=none;fillColor=none;" parent="1" vertex="1">
          <mxGeometry x="525" y="-910" width="220" height="30" as="geometry" />
        </mxCell>
        <mxCell id="wRAR-cZHQRiNVdQfNyx3-16" value="&lt;font color=&quot;#000000&quot;&gt;g_SrvInfo_pas&amp;nbsp;[&lt;span style=&quot;text-wrap: nowrap; font-family: monospace; font-size: 0px; text-align: start;&quot;&gt;3E&lt;/span&gt;&lt;span style=&quot;text-align: left;&quot;&gt;APPLGC_SRV_GANTRY_Z&lt;/span&gt;].setPoint_f32&lt;/font&gt;&lt;div&gt;&lt;font color=&quot;#000000&quot;&gt;[&lt;/font&gt;&lt;span style=&quot;color: rgb(0, 0, 0); text-align: left;&quot;&gt;APPLGC_SRV_GANTRY_X_ACT_MOTOR_Z_PULSE&lt;/span&gt;&lt;font color=&quot;#000000&quot;&gt;] = AGTRY_SWITCH_LIMIT_VALUE&lt;/font&gt;&lt;/div&gt;" style="rounded=1;whiteSpace=wrap;html=1;fillColor=#f5f5f5;fontColor=#333333;strokeColor=#666666;" parent="1" vertex="1">
          <mxGeometry x="175.5" y="-560" width="478.5" height="50" as="geometry" />
        </mxCell>
        <mxCell id="wRAR-cZHQRiNVdQfNyx3-17" value="Ret_e = RC_WARNING_BUSY" style="rounded=1;whiteSpace=wrap;html=1;fillColor=#f5f5f5;fontColor=#333333;strokeColor=#666666;" parent="1" vertex="1">
          <mxGeometry x="174" y="-470" width="478.5" height="40" as="geometry" />
        </mxCell>
        <mxCell id="wRAR-cZHQRiNVdQfNyx3-20" value="s_SetMvmt_b = True" style="rounded=1;whiteSpace=wrap;html=1;fillColor=#f5f5f5;fontColor=#333333;strokeColor=#666666;" parent="1" vertex="1">
          <mxGeometry x="174.25" y="-510" width="478.5" height="40" as="geometry" />
        </mxCell>
        <mxCell id="wRAR-cZHQRiNVdQfNyx3-21" value="&lt;font color=&quot;#000000&quot;&gt;g_SrvInfo_pas&amp;nbsp;[&lt;span style=&quot;text-wrap: nowrap; font-family: monospace; font-size: 0px; text-align: start;&quot;&gt;3E&lt;/span&gt;&lt;span style=&quot;text-align: left;&quot;&gt;APPLGC_SRV_GANTRY_Z&lt;/span&gt;].setPoint_f32&lt;/font&gt;&lt;div&gt;&lt;font color=&quot;#000000&quot;&gt;[&lt;/font&gt;&lt;span style=&quot;color: rgb(0, 0, 0); text-align: left;&quot;&gt;APPLGC_SRV_GANTRY_X_ACT_MOTOR_Z_PULSE&lt;/span&gt;&lt;font color=&quot;#000000&quot;&gt;] = 0.0&lt;/font&gt;&lt;/div&gt;" style="rounded=1;whiteSpace=wrap;html=1;fillColor=#f5f5f5;fontColor=#333333;strokeColor=#666666;" parent="1" vertex="1">
          <mxGeometry x="175" y="-820" width="478.5" height="50" as="geometry" />
        </mxCell>
        <mxCell id="Pj4DasiIP4NsNu8h7WGW-2" value="" style="shape=hexagon;perimeter=hexagonPerimeter2;whiteSpace=wrap;html=1;fixedSize=1;fillColor=#f5f5f5;fontColor=#333333;strokeColor=#666666;" parent="1" vertex="1">
          <mxGeometry x="216.62" y="-370" width="393.25" height="40" as="geometry" />
        </mxCell>
        <mxCell id="Pj4DasiIP4NsNu8h7WGW-6" style="edgeStyle=orthogonalEdgeStyle;rounded=0;orthogonalLoop=1;jettySize=auto;html=1;exitX=0.5;exitY=1;exitDx=0;exitDy=0;" parent="1" source="Pj4DasiIP4NsNu8h7WGW-4" target="Pj4DasiIP4NsNu8h7WGW-5" edge="1">
          <mxGeometry relative="1" as="geometry" />
        </mxCell>
        <mxCell id="Pj4DasiIP4NsNu8h7WGW-4" value="Ret_e = RC_WARNING_BUSY" style="rounded=1;whiteSpace=wrap;html=1;fillColor=#f5f5f5;fontColor=#333333;strokeColor=#666666;" parent="1" vertex="1">
          <mxGeometry x="173.99" y="-280" width="478.5" height="40" as="geometry" />
        </mxCell>
        <mxCell id="Pj4DasiIP4NsNu8h7WGW-5" value="End" style="ellipse;whiteSpace=wrap;html=1;aspect=fixed;fillColor=#f5f5f5;fontColor=#333333;strokeColor=#666666;" parent="1" vertex="1">
          <mxGeometry x="373.24" y="-140" width="80" height="80" as="geometry" />
        </mxCell>
      </root>
    </mxGraphModel>
  </diagram>
</mxfile>
